<svg width="261" height="400" viewBox="0 0 261 400" fill="none" xmlns="http://www.w3.org/2000/svg">
<path fill-rule="evenodd" clip-rule="evenodd" d="M144.433 260.665C144.881 265.337 143.965 269.798 141.784 273.57L141.075 274.797L142.425 275.27C144.883 276.129 147.617 276.547 150.782 276.547C154.04 276.547 157.427 276.094 160.149 275.729L161.891 275.496L161.035 273.982C160.347 272.766 160.22 271.291 160.085 269.731C160.048 269.311 160.011 268.878 159.962 268.449C157.383 245.397 154.123 222.044 150.97 199.46C150.14 193.517 149.282 187.371 148.45 181.327L146.063 181.419C145.421 192.607 144.797 203.985 144.195 214.989C143.93 219.827 143.665 224.666 143.397 229.504C142.445 241.735 142.774 251.639 144.433 260.665ZM145.407 398.9C141.902 398.9 138.389 398.535 134.968 397.815C124.261 395.568 114.534 390.265 106.257 385.471C105.834 385.232 105.406 384.992 104.965 384.746C101.725 382.933 97.6924 380.677 95.1652 377.925C92.3928 374.906 91.9156 371.898 93.6638 368.459L93.9404 367.914L93.6514 367.376C91.8412 364.007 91.9758 359.839 93.9786 357.24L95.6618 355.056L92.8944 355.349C90.104 355.645 87.2916 356.046 84.5716 356.434C81.5538 356.865 78.4327 357.31 75.3591 357.608L74.5049 357.691L74.3085 358.514C74.1991 358.972 74.0641 359.25 73.1159 359.25C72.2937 359.25 71.1887 359.01 70.0193 358.755C68.5679 358.439 66.9227 358.08 65.3363 358.08C64.6385 358.08 64.0109 358.147 63.4173 358.284L63.0719 358.363L62.8261 358.615C62.6689 358.776 62.4013 358.876 62.1279 358.876C61.9211 358.876 61.7293 358.818 61.6011 358.718L61.2135 358.415L60.7217 358.469C52.153 359.41 44.7644 361.061 38.1343 363.516L38.1043 363.528L37.9605 363.59C35.5631 364.624 33.0845 365.694 30.8271 365.694C29.1769 365.694 27.8369 365.133 26.6097 363.927L26.2629 363.587L25.7737 363.582C20.8101 363.537 18.542 357.749 18.2284 353.869L18.189 353.381L17.8106 353.063C9.16019 345.804 4.05336 335.834 2.19776 322.583C0.507747 310.513 1.80535 297.788 3.29756 286.931C6.74938 258.795 10.3496 233.573 19.5012 209.652L19.9288 208.533L18.7894 208.124C14.8368 206.704 11.816 205.009 9.55419 202.943L9.39759 202.8L9.20039 202.719C5.95877 201.387 4.37117 196.471 3.96176 194.996L3.92896 194.877L3.87176 194.768C3.21036 193.499 3.05776 191.734 3.45336 189.925L3.49576 189.73L3.47116 189.532C3.25756 187.815 3.96656 186.02 4.71717 184.119C5.06017 183.251 5.41457 182.353 5.67357 181.459C6.56398 178.904 7.45338 176.304 8.31379 173.79C10.2442 168.148 12.24 162.313 14.3662 156.638L14.657 155.862L14.0164 155.327C12.9228 154.413 13.288 153.338 14.865 150.767C15.2376 150.16 15.59 149.585 15.858 149.019C17.8794 145.526 20.0458 142.173 22.2983 139.052L22.3447 138.988L22.3817 138.919C33.9395 117.333 54.441 105.445 80.1094 105.445L80.6326 105.446L80.9218 105.272C85.7326 102.379 89.1668 97.4154 91.4206 90.0973L91.4926 89.864L91.4648 89.6217C91.3876 88.9472 91.303 88.0629 91.332 87.2048C91.4054 85.0316 92.2572 83.0923 93.6688 81.8841C96.347 79.5917 100.413 79.3998 104.348 79.3998H104.913C109.944 79.4151 113.496 80.2886 116.091 82.1501C119.106 84.3128 120.773 87.804 121.186 92.823C121.309 94.3248 121.305 95.8807 121.301 97.3853L121.3 97.8052L121.351 97.9719C121.712 99.1647 122.136 100.311 122.609 101.379L123.097 102.478L124.205 101.982C124.921 101.662 125.83 101.497 126.982 101.479C127.315 101.471 127.639 101.468 127.966 101.468C130.643 101.468 133.506 101.712 136.275 101.948C138.361 102.126 140.519 102.311 142.607 102.392L142.636 102.393C142.636 102.393 142.924 102.392 143.054 102.392C148.13 102.392 151.809 103.19 154.634 104.904C157.675 106.749 159.861 109.711 161.515 114.225C170.383 140.097 174.029 167.964 177.245 192.55C179.069 205.408 179.624 218.589 180.161 231.335C180.727 244.79 181.313 258.702 183.387 272.302L183.55 273.377L184.652 273.306C189.498 272.993 194.735 272.319 200.279 271.606C208.703 270.523 217.414 269.402 225.835 269.402C237.609 269.402 246.536 271.719 253.123 276.484C257.714 280.811 260.09 286.669 259.992 293.43C259.854 302.982 254.801 313.543 247.12 320.335L247.091 320.362C237.382 329.534 219.658 337.49 194.414 344.008C171.199 350.001 147.187 353.259 134.94 354.667L131.909 355.015L134.369 356.794C135.365 357.514 136.273 358.148 137.147 358.732L137.71 359.109L138.327 358.826C140.087 358.019 141.205 357.849 141.833 357.849C142.391 357.849 143.063 357.97 143.1 358.547C143.124 358.925 142.856 359.486 142.288 359.557L139.275 359.933L141.735 361.687C143.379 362.859 145.83 364.272 148.669 365.907C157.957 371.259 171.993 379.346 169.579 386.448L169.421 386.915L169.645 387.355C170.294 388.626 170.349 389.806 169.814 390.963C168.668 393.441 165.083 395.322 162.038 396.088L161.986 396.101L161.935 396.119C156.638 397.964 151.077 398.9 145.407 398.9Z" fill="white"/>
<path fill-rule="evenodd" clip-rule="evenodd" d="M135.216 353.276C135.582 352.903 135.736 352.415 135.394 351.842C134.072 350.153 131.329 351.308 129.624 351.698C128.979 351.162 128.34 350.624 127.724 350.057C127.938 348.729 126.342 347.846 125.686 346.822C125.042 346.067 124.436 345.21 123.663 344.578C121.782 343.11 119.174 344.103 116.99 344.036C115.308 341.897 113.576 339.824 111.976 337.614C113.82 334.515 113.95 330.884 113.338 327.43C141.624 316.697 166.108 296.376 196.7 291.679C197.752 291.504 198.342 290.225 198.08 289.288C195.946 284.195 165.28 297.335 160.696 299.715C147.176 306.189 134.511 314.258 121.372 321.378C118.632 322.834 115.618 323.616 112.622 324.373C108.017 309.262 100.229 295.411 94.2574 280.842C94.6452 280.17 94.9754 279.465 95.2554 278.74C95.0574 286.752 102.849 286.64 103.925 279.039C103.481 283.001 106.477 291.486 110.801 285.919C111.815 284.52 112.175 282.729 112.347 280.923C112.569 282.172 112.821 283.415 113.101 284.654C114.211 287.109 117.242 284.124 117.945 282.843C118.352 282.771 118.732 282.585 119.01 282.359C126.656 283.421 135.661 283.36 141.272 277.323C150.788 280.974 161.32 277.703 170.944 276.246C190.528 273.994 210.19 270.562 229.95 270.824C238.772 271.336 249.18 272.761 254.76 280.288C261.918 291.14 257.872 305.795 249.976 315.188C230.982 339.237 165.784 349.694 135.216 353.276ZM135.75 361.938C136.095 361.846 136.444 361.761 136.79 361.68C142.334 366.296 168.444 378.282 166.458 385.442C165.756 386.332 164.076 386.535 163.014 386.822C161.164 387.323 159.296 387.756 157.41 388.099C151.314 389.208 145 389.401 138.911 388.136C136.672 387.796 134.65 386.84 132.61 385.916C126.018 383.016 118.758 379.813 112.197 376.937C103.863 373.633 89.2452 367.122 95.2574 356.135C100.953 362.541 108.183 361.982 111.826 354.019C113.082 351.601 114.178 348.343 117.128 347.366C118.684 346.314 120.674 346.095 121.974 347.267C122.068 347.121 122.152 346.917 122.197 346.735C123.663 348.822 124.928 351.018 126.645 352.925C126.056 352.957 119.916 357.502 121.728 357.504C123.908 356.381 126.074 355.445 128.428 354.84C130.134 356.556 132.01 358.152 133.954 359.627C132.066 360.874 130.37 362.401 129.006 364.058C128.888 364.204 129.032 364.393 129.208 364.314C131.326 363.371 133.504 362.541 135.75 361.938ZM163.854 392.896C142.647 402.422 120.197 391.815 102.113 380.507C97.9394 378.176 92.4494 374.872 93.2934 369.385C96.3674 373.883 101.435 376.444 106.299 378.664C114.472 382.358 122.697 385.934 130.89 389.583C131.663 392.15 135.363 392.248 137.6 392.818C147.554 394.748 158.254 393.789 167.622 389.939C167.08 391.545 165.306 392.282 163.854 392.896ZM79.2451 355.806C78.7213 355.873 78.1971 355.933 77.6733 355.993C77.7273 355.299 77.3093 354.606 76.6373 354.391C76.9393 352.921 77.0513 351.402 76.8893 349.911C77.7653 352.175 80.5933 351.487 82.3893 350.835C84.9554 350.137 87.5054 349.387 90.0414 348.587C91.0414 350.445 92.1014 352.275 93.4034 353.958C88.6632 354.379 83.9673 355.217 79.2451 355.806ZM77.1593 348.685C77.0333 348.952 76.8533 349.233 76.8493 349.553C76.7213 348.451 76.4713 347.364 76.0913 346.321C76.4471 347.109 76.8033 347.897 77.1593 348.685ZM74.1673 342.781C71.8353 339.742 67.5253 337.257 63.5412 338.104C63.2852 338.16 63.279 338.571 63.5412 338.622C68.8933 339.349 73.5933 343.595 73.7791 349.084C74.2013 351.568 72.4733 354.007 73.0553 356.391C72.9393 356.399 72.8233 356.404 72.7093 356.412C72.6673 356.572 72.6291 356.714 72.5791 356.838C73.1573 356.934 73.3273 357.864 72.6451 358.03C72.2413 358.128 71.8193 358.18 71.3893 358.201C69.2073 357.612 66.9053 357.476 64.8192 356.605C62.7552 355.693 63.2712 353.13 62.5432 351.355C62.0092 349.308 61.395 347.269 60.6212 345.305C60.5652 345.147 60.3512 345.183 60.3332 345.342C59.7872 349.261 59.8052 353.246 59.9372 357.196C59.2212 357.269 58.5092 357.35 57.795 357.439C57.8412 356.335 54.5312 342.894 52.7872 346.343C53.6652 350.136 53.7712 354.098 53.8652 358C48.6872 358.853 43.5851 360.124 38.6211 361.854C35.1231 362.914 30.9629 366.05 27.5671 363.215C24.937 361.04 24.051 357.246 24.299 354.017C27.7191 334.913 54.7312 332.681 70.6773 334.093C72.1833 337.569 73.7173 341.032 75.2713 344.487C74.9493 343.892 74.5813 343.321 74.1673 342.781ZM19.781 353.644C19.489 349.306 20.219 343.906 23.433 340.673C30.7891 334.454 41.0891 332.497 50.2812 330.246C54.563 329.401 58.9032 328.839 63.2612 328.559C64.8072 328.437 66.7713 328.788 67.8631 327.523C68.4253 328.855 68.9951 330.185 69.5653 331.514C51.2652 329.117 13.085 337.446 23.777 362.515C21.5128 360.063 20.0128 357.076 19.781 353.644ZM110.699 339.304C111.542 341.408 112.571 343.412 113.918 345.244C112.387 346.245 111.139 347.724 110.259 349.314C104.619 364.07 98.5874 356.166 91.0934 348.248C97.4354 345.855 105.835 344.062 110.699 339.304ZM16.821 350.642C2.15493 336.154 -0.691086 312.018 4.72694 293.047C5.20894 286.011 7.66896 279.307 9.87297 272.646C16.891 252.441 26.1211 233.002 37.1911 214.649C50.9252 218.422 64.6352 222.295 78.4013 225.943C80.2971 226.355 82.1951 227.169 84.1413 227.287C84.8373 227.73 85.5354 228.219 86.2594 228.648C85.2054 233.812 86.1774 239.084 86.4234 244.279C86.6472 248.369 86.2054 252.374 85.6632 256.421C85.0574 262.307 82.5631 281.454 87.5614 284.959C89.2554 285.777 90.7694 283.356 91.4994 284.022C92.1574 283.563 92.7714 282.966 93.2714 282.308C95.2014 288.549 98.3554 294.339 100.303 300.586C102.895 309.766 111.407 324.627 109.517 333.384C108.055 338.792 101.659 339.958 97.0434 341.725C91.7094 343.581 86.3154 345.285 80.8333 346.668C78.1573 340.989 75.5993 335.255 73.0893 329.501C61.6172 302.95 51.4572 275.846 42.3771 248.418C42.2071 247.809 40.1191 241.214 39.7371 243.054C39.7051 242.865 39.4671 242.376 39.3771 242.794C40.9171 249.234 42.4789 255.672 44.1691 262.077C40.0171 261.496 35.5531 261.269 31.7531 263.304C31.5571 263.409 31.7011 263.666 31.8949 263.635C36.3949 262.855 40.7351 264.329 45.0572 265.387C51.1272 286.049 58.9592 306.187 67.2493 326.073C64.6852 325.255 61.7092 326.16 59.0332 326.225C50.6052 327.096 42.2731 328.94 34.3111 331.808C24.303 335.053 17.227 339.284 16.821 350.642ZM8.74676 199.862C6.28295 197.208 4.34674 193.819 4.72094 190.224C6.20095 188.25 6.69095 185.675 7.55296 183.393C10.923 173.846 14.051 164.226 17.719 154.782C25.521 157.182 33.1969 160.06 40.4371 163.84C41.7691 164.52 43.0871 165.225 44.3891 165.956C45.7532 166.721 47.2412 168.049 48.8772 167.668C47.0892 170.2 43.4071 172.834 42.7851 175.759C42.6511 176.685 43.3071 177.544 44.3151 177.338C60.0932 188.545 76.3873 199.517 91.3014 212.001C102.469 220.843 111.043 228.014 114.874 242.36C117.456 251.653 117.463 261.366 117.084 270.921C117.01 272.778 117.008 274.679 116.858 276.549C117.082 277.948 116.656 280.795 115.084 280.846C115.12 281.185 115.232 281.498 115.41 281.774C115.36 281.841 115.308 281.904 115.254 281.969C115.176 281.587 115.1 281.206 115.028 280.824C113.804 275.402 113.64 269.112 113.844 263.34C113.929 261.685 111.392 261.724 111.249 263.34C110.867 267.703 110.485 272.067 110.103 276.429C109.645 279.256 110.367 282.954 108.107 285.103C105.809 282.979 106.569 278.791 106.681 276.051C106.861 271.581 107.055 267.112 107.221 262.642C107.273 261.226 104.927 260.861 104.661 262.301C103.907 266.407 103.091 270.501 102.213 274.583C101.683 276.161 101.319 283.241 98.6714 282.012C97.0934 280.934 98.2314 274.616 98.0234 272.524C98.1214 268.383 98.1792 264.248 98.4834 260.117C98.6074 258.45 95.8934 258.095 95.5214 259.723C94.9174 262.357 94.3394 264.991 93.8154 267.642C92.6654 272.112 93.0834 278.172 88.9314 281.143C87.3054 269.532 89.6452 258.001 89.9734 246.43C89.7774 242.681 89.1334 238.97 88.5654 235.266C87.9374 231.17 87.5714 226.712 89.0414 222.762C88.6394 220.993 87.0594 225.778 86.9114 226.176C85.7214 223.832 82.8233 223.65 80.5313 222.919C75.4373 221.27 70.2193 220.027 65.0653 218.562C51.397 214.765 37.7129 211.028 24.025 207.299C18.557 205.786 12.801 203.995 8.74676 199.862ZM145.618 261.626C143.732 251.403 143.784 241.044 144.59 230.709C145.476 214.681 146.336 198.648 147.256 182.621C151.25 211.629 155.508 240.603 158.764 269.703C158.996 271.728 158.96 273.872 159.982 275.678C154.334 276.435 148.313 277.197 142.822 275.276C145.232 271.11 146.082 266.366 145.618 261.626ZM174.156 189.621C178.426 217.114 175.99 245.089 180.132 272.55C174.386 273.194 168.684 274.148 162.998 275.196C163.62 271.803 162.44 268.3 162.236 264.884C159.148 240.518 155.738 216.168 151.22 192.015C150.111 186.234 148.992 180.478 147.708 174.729C147.902 171.248 148.072 167.767 148.184 164.284C154.454 160.342 161.524 157.79 168.836 156.504C170.812 167.513 172.786 178.514 174.156 189.621ZM124.726 103.229C124.476 102.801 124.238 102.364 124.01 101.921C124.782 101.95 125.534 101.978 126.294 102.104C126.26 103.327 126.328 104.561 126.342 105.794C125.961 104.892 125.218 104.068 124.726 103.229ZM253.69 275.515C235.452 262.252 205.496 270.702 184.368 272.065C180.34 245.652 181.984 218.808 178.23 192.352C174.772 165.921 171.126 139.122 162.442 113.798C158.858 104.007 152.658 101.099 142.45 101.178C137.27 100.975 131.792 100.146 126.758 100.264C125.654 100.282 124.5 100.427 123.504 100.873C122.104 97.7166 121.344 94.328 120.96 90.9139C120.936 90.6972 120.66 90.6578 120.578 90.8646C119.394 93.8375 119.268 97.0822 119.911 100.195C120.378 102.425 123.152 111.202 126.374 107.768C126.629 114.969 125.047 123.568 117.994 127.305C105.667 132.68 88.6292 127.786 81.4893 116.379C80.1093 114.1 78.9193 111.674 77.3913 109.486C88.0374 106.472 94.0132 93.7153 91.5054 84.0009C89.9554 91.5561 87.1292 99.9979 80.0913 104.23C54.463 104.173 33.1551 115.845 21.115 138.328C18.759 141.592 16.581 144.985 14.585 148.436C13.5108 150.745 10.365 153.957 13.035 156.187C9.95097 164.418 7.21496 172.763 4.32294 181.059C3.52874 183.823 1.71273 186.723 2.07493 189.629C1.68293 191.42 1.70093 193.538 2.59893 195.259C3.45094 198.329 5.36275 202.458 8.53296 203.76C11.223 206.217 14.625 207.909 18.173 209.184C8.71076 233.912 5.10894 260.582 1.90293 286.709C-1.23929 309.566 -2.8611 337.37 16.827 353.888C17.209 358.615 20.0128 364.637 25.5571 364.689C29.3969 368.459 34.0771 366.391 38.3511 364.547C45.5652 361.875 53.1312 360.394 60.6492 359.568C61.4552 360.199 62.7672 360.094 63.4852 359.36C68.0393 358.31 74.3513 362.561 75.2713 358.709C81.1433 358.14 86.9514 357.072 92.8174 356.45C90.3452 359.657 90.5234 364.387 92.3854 367.852C87.6434 377.181 98.6894 382.583 105.443 386.411C114.561 391.69 124.084 396.701 134.511 398.889C143.679 400.818 153.284 400.233 162.13 397.152C166.778 395.983 173.27 392.148 170.512 386.744C174.008 376.46 149.456 365.804 142.234 360.654C145.186 360.286 145.294 354.158 137.616 357.679C136.688 357.058 135.776 356.418 134.874 355.766C165.93 352.196 225.24 342.376 247.716 321.146C260.064 310.23 267.188 288.149 253.69 275.515Z" fill="black"/>
<path fill-rule="evenodd" clip-rule="evenodd" d="M109.573 4.74573C122.873 4.74573 136.63 15.0552 141.506 21.6339C145.605 27.165 147.812 52.1764 147.812 69.0793C147.812 72.6144 149.763 79.2784 149.193 82.6599C147.107 95.0511 138.018 105.443 120.029 105.443C102.039 105.443 89.141 98.3125 75.7699 79.1675C69.2822 79.1675 66.1379 74.1922 66.0916 66.3407C66.0616 61.1064 68.1493 57.537 72.3546 55.6326C70.8552 34.9757 71.9936 21.9582 75.7699 16.5801C81.4343 8.513 96.2726 4.74573 109.573 4.74573Z" fill="white"/>
<path fill-rule="evenodd" clip-rule="evenodd" d="M103.976 0.364567C112.373 -0.485732 120.602 0.228706 128.878 1.70701C129.511 1.82155 129.869 2.2364 130.002 2.7351C133.9 2.91312 137.803 3.19913 141.696 3.41229C143.108 3.48959 143.909 4.88544 143.265 6.1459C143.136 6.3963 143.003 6.63992 142.867 6.88353L143.038 6.82726C144.209 6.45157 145.474 6.26634 146.615 6.86268C148.067 7.62163 148.636 9.29622 148.316 10.8375C148.233 11.2311 148.095 11.6082 147.938 11.9762C148.257 11.9551 148.578 11.9621 148.896 12.0043C150.592 12.2292 151.853 13.5292 151.942 15.2603C152.073 17.8742 150.389 20.526 148.405 22.3974C148.692 22.9903 148.803 23.6883 148.683 24.3957C148.444 25.7941 147.414 26.6316 146.22 27.1778C146.718 28.7592 146.953 30.4125 146.814 32.102C146.768 32.6661 146.275 33.132 145.754 33.2463C147.695 38.5903 148.677 44.3279 149.384 49.9185C149.887 53.8962 150.136 57.897 150.166 61.9047C150.181 63.7141 150.151 65.5255 150.075 67.3352L150.044 68.0137C149.951 69.9699 149.946 72.024 149.594 73.959C150.794 75.999 151.276 78.5314 151.48 80.8174C151.733 83.6471 151.333 86.5657 150.44 89.2574C147.071 99.428 136.906 105.846 126.695 107.514C117.243 109.058 106.307 106.98 100.783 98.3949C100.696 98.2591 100.881 98.1469 100.989 98.2359C104.941 101.449 109.525 102.883 114.505 103.581C123.116 104.785 132.794 102.742 139.705 97.327C143.021 94.7269 145.413 90.9416 146.465 86.8679C147.001 84.7857 147.186 82.614 146.975 80.471C146.76 78.2972 145.797 76.442 145.191 74.3877C144.987 73.6941 145.202 73.0499 145.626 72.5911C145.746 70.923 146.027 69.2412 146.134 67.5783C146.254 65.6877 146.327 63.7974 146.353 61.9047C146.402 57.9788 146.238 54.0459 145.908 50.1366C145.303 42.9779 143.699 35.993 142.757 28.8953C142.408 29.208 141.909 29.3364 141.385 29.0632L141.33 29.0335L141.045 28.8697C141.028 28.8697 141.01 28.8721 140.993 28.8742C139.037 29.0642 137.009 28.7924 135.135 28.2089C133.174 27.6001 131.354 26.6632 129.728 25.4147C129.419 26.9815 129.29 28.565 129.288 30.1625C129.286 31.1604 128.229 31.6783 127.391 31.252C123.673 29.3638 120.122 27.1879 116.751 24.7424C116.358 26.7592 115.964 28.7758 115.568 30.795C115.416 31.5729 114.425 31.8868 113.79 31.5167C111.265 30.0477 109.085 28.1248 107.309 25.8384C106.955 26.5163 106.599 27.1941 106.241 27.8704L105.702 28.8836C105.17 29.8791 104.458 30.9803 103.294 31.2986C102.062 31.6359 101.034 30.8374 100.619 29.7221C100.493 29.3757 100.376 29.0194 100.268 28.661C99.2181 31.0576 98.0331 33.4 96.6932 35.6347C94.6834 38.9864 92.2705 41.973 89.8651 45.0369C89.1342 45.9671 87.8834 45.0791 87.7827 44.1751C87.7241 43.6434 87.6749 43.1093 87.6325 42.5774C86.2308 45.4061 84.7682 48.2083 83.1746 50.9293L83.4028 51.8234C84.0603 54.4652 84.6063 57.1257 85.1999 59.7815C85.3915 60.6384 84.9361 61.8635 83.935 62.0094C82.739 62.1837 81.6073 62.7948 80.3822 62.3743C79.0464 61.9157 78.7824 60.7611 78.1518 59.6667C78.026 59.4487 77.8796 59.2484 77.7222 59.0582L77.6821 59.1102C77.5838 59.2392 77.3495 59.0987 77.4081 58.9511L77.4767 58.7806C76.9349 58.2055 76.2865 57.7258 75.6904 57.2098C74.2737 56.9711 72.6801 57.2325 71.704 57.808C69.4811 59.1195 68.46 61.8227 68.4389 64.3082C68.4132 67.2175 69.3148 70.4876 70.8373 72.9752C71.5075 74.0691 72.4257 75.0574 73.6389 75.5425C74.8431 76.0248 76.1478 75.8751 77.3729 76.3293C78.1834 76.6317 78.6823 77.5312 78.1928 78.3462C78.16 78.4026 78.1225 78.4539 78.0871 78.508L78.4515 78.9916C78.7021 79.3266 78.9634 79.6852 79.207 80.0585C79.8301 80.7755 80.486 81.4665 81.1208 82.1716C82.2941 83.4714 83.4328 84.8068 84.5874 86.1253C85.6768 87.3694 86.8293 88.538 88.0169 89.6882C89.1389 90.7776 90.5397 91.6933 91.5704 92.8553C92.5727 93.9891 92.8446 95.9682 91.1953 96.6243C89.3707 97.3519 87.7555 95.6466 86.5273 94.5097L86.4756 94.462C84.224 92.3901 82.1908 90.0224 80.5762 87.4155C78.9768 88.5043 76.6634 88.6083 75.0708 87.5198C74.2327 86.9471 73.5897 85.9846 73.2772 84.9375C72.9825 85.0035 72.6881 85.0422 72.4009 85.0377C72.2531 85.1235 72.1048 85.2069 71.9549 85.2846C70.7671 85.9028 69.308 85.6266 68.7645 84.3123C68.2697 83.1192 68.7796 81.7641 69.2253 80.6145L69.3173 80.377C69.5703 79.7214 69.8491 79.0069 70.1958 78.3347C69.2307 77.6085 68.4059 76.7065 67.7081 75.6807C65.3633 72.2256 64.1921 67.1728 64.7098 63.0504C65.0213 60.5627 66.19 57.9861 68.1037 56.3086L68.0337 56.1259C67.4973 54.7652 67.0098 53.3994 66.6938 51.9613C66.3237 50.2795 66.1431 48.5367 65.9794 46.8244C65.6327 43.2077 65.7264 39.509 66.1879 35.9064C67.0546 29.1251 69.2518 22.4679 73.1519 16.825C72.046 15.5013 71.1702 13.9436 71.6267 12.1519C71.8354 11.3294 72.3107 10.5497 73.0277 10.0786C73.4234 9.81882 73.8944 9.779 74.2903 9.56349L74.4093 9.49796C74.5832 9.39649 74.4502 9.40724 74.3465 8.93572C73.9366 7.05218 74.2763 5.23236 76.3493 4.60693C78.3005 4.01898 80.1464 5.26749 81.3012 6.75493C84.3229 4.61138 88.305 3.48959 91.8069 2.53623C95.7891 1.45614 99.874 0.781753 103.976 0.364567ZM71.3366 63.5398C71.3223 62.0055 72.777 61.0591 74.2084 61.31C75.1696 61.4773 75.9714 62.0509 76.7243 62.6438L77.0914 62.9343C78.0083 63.6541 79.0609 64.4301 79.6075 65.4491C80.4086 66.9529 78.7152 68.9765 77.1341 67.9224C76.0495 67.1956 75.3543 66.031 74.6428 64.9491L74.5691 64.8375C74.2459 64.3526 73.9625 63.8373 73.5195 63.4484L73.4238 63.3646C73.2782 63.2405 73.1219 63.1273 72.9339 63.0736C72.5712 62.9694 71.8994 63.1154 71.7395 63.5472L71.7252 63.5913C71.6667 63.8094 71.3389 63.7623 71.3366 63.5398Z" fill="black"/>
<path fill-rule="evenodd" clip-rule="evenodd" d="M129.484 85.522C127.758 86.0218 125.906 86.0664 124.147 85.5503C122.552 85.0821 120.914 84.0518 119.739 82.6884C118.696 81.4772 118.021 80.0054 118.047 78.4343C118.05 78.2548 118.115 78.1051 118.213 77.9888C118.319 77.8637 118.468 77.7777 118.627 77.7404C118.79 77.7021 118.963 77.7157 119.11 77.7825C119.244 77.843 119.358 77.9458 119.429 78.0961C119.61 78.3331 119.789 78.5667 119.97 78.7937C121.421 80.5853 122.826 81.9241 125.007 82.4044C126.191 82.665 127.373 82.5494 128.458 82.1518C129.619 81.7262 130.669 80.9778 131.492 80.0202C131.863 79.5874 132.302 79.4108 132.731 79.4078C133.218 79.4045 133.698 79.6304 134.06 79.9916C134.416 80.3466 134.655 80.829 134.676 81.3337C134.695 81.7766 134.551 82.2392 134.166 82.652C132.9 84.0117 131.259 85.0077 129.484 85.522ZM129.43 63.0835C131.199 64.1587 133.895 66.6658 131.992 69.3313C129.752 71.6816 126.527 68.9868 124.938 67.7681C123.464 66.8236 121.808 69.2528 123.176 70.3557C134.659 78.8576 139.319 63.3646 130.325 61.8194C129.335 61.6491 128.967 62.7509 129.43 63.0835ZM112.884 58.3525C112.315 57.9889 111.646 57.8641 110.905 58.2013C110.326 58.4647 109.31 59.3428 108.603 60.4971C108.12 61.2867 107.777 62.2131 107.848 63.1781C107.865 63.4022 107.782 63.5674 107.651 63.6896C107.548 63.7861 107.399 63.857 107.224 63.8792C107.075 63.898 106.909 63.881 106.774 63.8388C106.517 63.7585 106.38 63.5916 106.329 63.4554C105.834 62.1408 106.047 60.6738 106.602 59.3503C107.351 57.5642 108.711 56.0681 109.601 55.5857C111.126 54.76 112.924 54.722 114.451 55.5632C115.75 56.2792 116.563 57.435 117.371 58.6133C117.542 58.8637 117.713 59.1124 117.889 59.3566C118.242 59.8461 118.278 60.3315 118.141 60.7477C117.989 61.2089 117.603 61.598 117.12 61.8017C116.673 61.9899 116.155 62.0164 115.697 61.823C115.309 61.6596 114.954 61.3411 114.729 60.8007C114.35 59.8906 113.719 58.8865 112.884 58.3525ZM141.758 60.3774C141.368 60.5802 141.064 60.6414 140.632 60.512C140.393 60.4403 140.157 60.3028 139.972 60.1179C139.789 59.9348 139.657 59.707 139.606 59.4543C139.479 58.8307 139.138 58.2469 138.652 57.8664C138.236 57.5411 137.712 57.3687 137.13 57.466C136.502 57.5708 135.904 57.9735 135.492 58.4482C135.354 58.6071 135.246 58.7875 135.137 58.9667C134.934 59.3018 134.737 59.6133 134.457 59.8594C134.351 59.9531 134.191 60.0179 134.036 60.0179C133.973 60.0179 133.909 60.0077 133.849 59.9887C133.224 59.3615 133.103 58.8857 133.124 58.4137C133.145 57.9188 133.34 57.4177 133.655 56.9502C134.395 55.8535 135.799 54.9543 136.747 54.7506C138.045 54.4717 139.334 54.8065 140.367 55.5314C141.43 56.2772 142.218 57.4352 142.464 58.7402C142.523 59.0545 142.498 59.3937 142.378 59.6879C142.261 59.9753 142.057 60.2215 141.758 60.3774ZM115.746 46.6597C114.967 47.4186 114.045 47.5361 113.113 47.6406C112.595 47.6993 112.181 47.7465 111.774 47.8384C110.655 48.0909 109.549 48.4713 108.54 49.0191C107.485 49.5918 106.336 50.2824 105.509 51.1672C105.313 51.3777 105.127 51.5986 104.942 51.82C104.772 52.0219 104.609 52.2163 104.437 52.4037C104.24 52.619 104.053 52.8446 103.866 53.0696C103.751 53.2594 103.728 53.3061 103.705 53.3547C103.67 53.4278 103.63 53.5095 103.583 53.5972C103.52 53.7173 103.445 53.8488 103.367 53.968C103.237 54.1859 103.168 54.2459 103.108 54.2728C103.008 54.3172 102.913 54.3391 102.821 54.3273C102.735 54.3161 102.654 54.2748 102.574 54.2071C102.174 53.8693 102.056 53.3148 102.068 52.7263C102.087 51.8332 102.416 50.8443 102.72 50.2365C103.426 48.8241 104.405 47.3558 105.583 46.3016C106.926 45.0983 108.396 44.1874 110.085 43.5597C111.134 43.1694 112.349 42.8112 113.492 42.8565C114.315 42.8891 115.1 43.1336 115.749 43.7444C116.147 44.1194 116.338 44.6527 116.338 45.1857C116.338 45.7293 116.14 46.276 115.746 46.6597ZM143.342 53.6085C143.292 53.6897 143.224 53.7456 143.147 53.7792C143.067 53.8144 142.978 53.8246 142.893 53.8102C142.807 53.7958 142.726 53.7571 142.662 53.698C142.6 53.6414 142.553 53.5663 142.532 53.4743C142.015 51.2032 141.011 49.5134 138.868 48.4238C137.814 47.8878 136.602 47.5472 135.454 47.2757C135.121 47.1967 134.768 47.1456 134.413 47.0938C133.301 46.9314 132.181 46.7454 131.456 45.8465C131.019 45.305 130.836 44.6124 130.939 43.9791C131.037 43.3828 131.386 42.836 132.019 42.5083C133.596 41.6929 135.556 42.493 137.148 43.1746C137.266 43.2252 137.382 43.2748 137.496 43.3227C139.053 43.9801 140.474 44.8478 141.641 46.0888C142.568 47.0733 143.426 48.5286 143.772 50.0258C144.059 51.2715 143.992 52.5431 143.342 53.6085Z" fill="black"/>
<g clip-path="url(#clip0_141:3)">
<path fill-rule="evenodd" clip-rule="evenodd" d="M109.982 88.8673C111.879 84.4306 116.019 81.1699 120.785 79.9778C124.285 79.1046 127.959 79.1324 131.527 79.479C133.396 79.6593 135.402 79.8071 137.163 80.5002C138.668 81.0924 139.894 82.2117 140.816 83.5256C141.913 85.0825 142.66 86.8645 143.184 88.691C143.258 88.9507 143.328 89.2123 143.393 89.4752C143.165 90.8533 142.682 92.0262 141.403 92.8926C140.156 93.7387 138.667 94.0848 137.183 94.2077C137.038 94.1379 136.897 94.0663 136.768 93.9927C134.456 92.6711 132.828 89.5478 129.909 89.9705C127.305 90.348 125.59 93.62 124.041 95.5387C119.069 96.1171 114.101 94.6255 110.056 91.7869C109.85 90.8154 109.838 89.8356 109.982 88.8673ZM146.773 85.5017C146.375 84.3873 145.874 83.3081 145.28 82.2913C143.317 78.9289 140.303 76.2499 136.726 74.7184C128.263 71.1006 117.313 73.6509 110.478 79.5844C108.144 81.6127 105.783 84.5934 105.069 87.7996C104.856 87.8417 104.655 87.9525 104.489 88.1084C99.5516 85.0046 94.4666 82.0183 90.4876 77.7157C87.598 74.5896 85.5881 70.8901 84.3574 66.8248C84.2568 66.4901 83.7163 66.5391 83.7327 66.9093C83.7374 66.9959 83.742 67.0823 83.7467 67.169C83.6953 67.0097 83.4519 67.0917 83.4332 67.2462C82.771 72.1848 81.9428 77.4207 82.7055 82.385C83.1618 85.3472 84.5095 87.5158 86.3111 89.8574C88.2414 92.3674 90.4267 94.702 92.6612 96.9409C94.0791 98.362 95.5602 100.001 97.2963 101.043C99.3155 102.254 101.606 103.174 103.761 104.108C105.953 105.061 108.179 105.942 110.446 106.705C114.978 108.237 119.662 109.295 124.428 109.759C128.244 110.129 132.606 110.532 136.263 109.098C139.066 108 141.328 106.015 143.123 103.626C145.077 101.024 146.621 98.0611 147.475 94.9362C148.362 91.6902 146.96 86.0251 146.773 85.5017Z" fill="black"/>
</g>
<g clip-path="url(#clip1_141:3)">
<path fill-rule="evenodd" clip-rule="evenodd" d="M147.767 59.5678C147.105 61.3636 146.097 63.233 144.864 64.7444C139.878 68.9518 135.032 66.6222 132.572 60.9198C131.637 56.8898 134.119 52.5489 136.749 49.5844C140.548 45.791 146.747 47.7819 148.493 52.2913C148.6 52.8756 148.664 53.4584 148.694 54.0394C148.658 55.9273 148.43 57.5408 147.767 59.3345V59.5678ZM99.8343 55.9462C106.404 48.1606 118.694 47.7443 118.38 59.7272C116.969 74.8949 93.2059 71.172 99.8343 55.9462ZM149.833 49.4514C149.603 49.0629 149.348 48.687 149.069 48.3274C148.966 48.2663 148.907 47.724 148.528 47.6839C143.463 42.1167 134.566 45.2754 131.351 50.8227C130.764 51.5241 130.285 52.3452 129.931 53.2127C126.764 52.6338 123.071 52.7463 120.125 53.9384C117.204 46.3382 108.36 45.6597 102.532 48.907C98.9067 50.6834 96.5562 54.4034 93.0307 56.447C84.7432 57.0413 75.8486 55.1912 67.7107 57.2625C61.2926 58.592 66.6578 61.83 67.7341 59.6691C75.4067 57.4104 84.4966 59.3191 92.4628 58.8102C93.2912 60.2062 94.8796 61.3486 96.4627 61.2999C98.1725 76.4015 120.276 73.8974 121.038 60.4729C121.903 59.1105 122.979 57.8066 124.518 56.9577C125.108 56.8362 125.677 56.6782 126.197 56.4337C127.087 56.3086 128.457 56.6843 129.276 57.4221C132.078 74.1792 148.227 72.2276 151.113 57.5476C151.17 57.4893 151.33 57.2704 151.454 56.9192C152.441 55.6179 154.86 55.1342 154.473 52.9374C154.129 50.7401 151.344 50.7662 149.833 49.4514Z" fill="black"/>
</g>
<defs>
<clipPath id="clip0_141:3">
<rect width="65.6003" height="53.8003" fill="white" transform="translate(82.4004 66.6003)"/>
</clipPath>
<clipPath id="clip1_141:3">
<rect width="91.8005" height="32.2002" fill="white" transform="translate(61.8005 42.2002)"/>
</clipPath>
</defs>
</svg>
